<svg width="20" height="20" viewBox="0 0 20 20" fill="none" xmlns="http://www.w3.org/2000/svg">
<path d="M11.9535 17H8.04651C4.5107 17 3 15.4893 3 11.9535V8.04651C3 4.5107 4.5107 3 8.04651 3H9.34884C9.61581 3 9.83721 3.2214 9.83721 3.48837C9.83721 3.75535 9.61581 3.97674 9.34884 3.97674H8.04651C5.04465 3.97674 3.97674 5.04465 3.97674 8.04651V11.9535C3.97674 14.9553 5.04465 16.0233 8.04651 16.0233H11.9535C14.9553 16.0233 16.0233 14.9553 16.0233 11.9535V10.6512C16.0233 10.3842 16.2446 10.1628 16.5116 10.1628C16.7786 10.1628 17 10.3842 17 10.6512V11.9535C17 15.4893 15.4893 17 11.9535 17Z" fill="white"/>
<path d="M7.44805 14C7.04628 14 6.67745 13.855 6.40741 13.5914C6.08468 13.2685 5.94636 12.8007 6.01881 12.3064L6.30203 10.3229C6.35472 9.9407 6.605 9.44647 6.87504 9.17629L12.065 3.98352C13.3757 2.67216 14.7062 2.67216 16.0169 3.98352C16.7348 4.70181 17.0575 5.43327 16.9916 6.16474C16.9324 6.75782 16.6162 7.33772 16.0169 7.9308L10.8268 13.1236C10.5568 13.3937 10.0628 13.6442 9.68079 13.6969L7.69833 13.9802C7.61271 14 7.52709 14 7.44805 14ZM12.7632 4.68204L7.57319 9.8748C7.44805 10 7.30315 10.29 7.27681 10.4613L6.99359 12.4448C6.96725 12.6359 7.00677 12.7941 7.10556 12.8929C7.20436 12.9918 7.36243 13.0313 7.55343 13.0049L9.53589 12.7216C9.70713 12.6952 10.0035 12.5503 10.1221 12.425L15.3121 7.23228C15.7402 6.80395 15.9642 6.42174 15.9971 6.06589C16.0366 5.63756 15.8127 5.18286 15.3121 4.67545C14.2583 3.62109 13.5338 3.91763 12.7632 4.68204Z" fill="white"/>
<path d="M14.5354 9C14.4919 9 14.4483 8.9938 14.4111 8.98139C12.7762 8.52229 11.4771 7.22566 11.0171 5.59401C10.9487 5.34585 11.0917 5.09148 11.3403 5.01704C11.5889 4.94879 11.8438 5.09148 11.9122 5.33964C12.2852 6.66109 13.3357 7.70957 14.6597 8.08181C14.9083 8.15005 15.0513 8.41062 14.9829 8.65878C14.927 8.86972 14.7405 9 14.5354 9Z" fill="white"/>
</svg>
