<svg width="20" height="20" viewBox="0 0 20 20" fill="none" xmlns="http://www.w3.org/2000/svg">
<path d="M18 9.5C18 9.5 15 4 10 4C5 4 2 9.5 2 9.5C2 9.5 5 15 10 15C15 15 18 9.5 18 9.5ZM3.173 9.5C3.65651 8.76512 4.21264 8.08069 4.833 7.457C6.12 6.168 7.88 5 10 5C12.12 5 13.879 6.168 15.168 7.457C15.7884 8.08069 16.3445 8.76512 16.828 9.5C16.77 9.587 16.706 9.683 16.633 9.788C16.298 10.268 15.803 10.908 15.168 11.543C13.879 12.832 12.119 14 10 14C7.88 14 6.121 12.832 4.832 11.543C4.21165 10.9193 3.65552 10.2349 3.172 9.5H3.173Z" fill="white"/>
<path d="M10 7C9.33696 7 8.70107 7.26339 8.23223 7.73223C7.76339 8.20107 7.5 8.83696 7.5 9.5C7.5 10.163 7.76339 10.7989 8.23223 11.2678C8.70107 11.7366 9.33696 12 10 12C10.663 12 11.2989 11.7366 11.7678 11.2678C12.2366 10.7989 12.5 10.163 12.5 9.5C12.5 8.83696 12.2366 8.20107 11.7678 7.73223C11.2989 7.26339 10.663 7 10 7ZM6.5 9.5C6.5 8.57174 6.86875 7.6815 7.52513 7.02513C8.1815 6.36875 9.07174 6 10 6C10.9283 6 11.8185 6.36875 12.4749 7.02513C13.1313 7.6815 13.5 8.57174 13.5 9.5C13.5 10.4283 13.1313 11.3185 12.4749 11.9749C11.8185 12.6313 10.9283 13 10 13C9.07174 13 8.1815 12.6313 7.52513 11.9749C6.86875 11.3185 6.5 10.4283 6.5 9.5Z" fill="white"/>
</svg>
