<svg width="41" height="42" viewBox="0 0 41 42" fill="none" xmlns="http://www.w3.org/2000/svg">
<path fill-rule="evenodd" clip-rule="evenodd" d="M20.5 15.4574L19.6082 14.5495C17.8452 12.7545 14.5905 13.3709 13.4185 15.6378C12.8756 16.688 12.738 18.2268 13.7621 20.228C14.744 22.1466 16.7895 24.4619 20.5 26.9965C24.2105 24.4617 26.256 22.1462 27.2378 20.2275C28.262 18.2263 28.1244 16.6875 27.5815 15.6374C26.4096 13.3708 23.1549 12.7544 21.3918 14.5495L20.5 15.4574ZM20.5 28.5C3.65294 17.4748 15.4426 8.8779 20.3753 13.5511C20.4174 13.5909 20.4589 13.6317 20.5 13.6736C20.5411 13.6317 20.5826 13.5909 20.6247 13.551C25.5574 8.87789 37.3471 17.4737 20.5 28.5Z" fill="#81D264"/>
<rect x="0.5" y="1" width="40" height="40" rx="20" stroke="#81D264"/>
</svg>
