<svg width="26" height="27" viewBox="0 0 26 27" fill="none" xmlns="http://www.w3.org/2000/svg">
<path fill-rule="evenodd" clip-rule="evenodd" d="M26 13.5C26 20.6797 20.1797 26.5 13 26.5C11.5768 26.5 10.207 26.2713 8.92537 25.8486V13.097C8.92537 9.7833 11.6117 7.09702 14.9254 7.09702L24.3164 7.09702C25.3881 8.98706 26 11.1721 26 13.5ZM2.71642 21.4539V9.42537C2.71642 5.99626 5.49626 3.21642 8.92537 3.21642L20.9539 3.21642C18.7554 1.51353 15.9961 0.5 13 0.5C5.8203 0.5 0 6.3203 0 13.5C0 16.4961 1.01353 19.2554 2.71642 21.4539ZM14.7463 13.694C14.7463 15.1943 13.5301 16.4104 12.0299 16.4104C10.5296 16.4104 9.31343 15.1943 9.31343 13.694C9.31343 12.1938 10.5296 10.9776 12.0299 10.9776C13.5301 10.9776 14.7463 12.1938 14.7463 13.694Z" fill="white"/>
</svg>
