<svg width="20" height="20" viewBox="0 0 20 20" fill="none" xmlns="http://www.w3.org/2000/svg">
<path d="M10.3112 4.36128L10.3553 3.91341C10.3605 3.85981 10.3547 3.80578 10.3383 3.75496C10.322 3.70415 10.2956 3.65812 10.2614 3.6196C10.2273 3.58111 10.1863 3.55102 10.1414 3.53067C10.0965 3.51033 10.0484 3.5 10 3.5C9.95164 3.5 9.90351 3.51033 9.85862 3.53067C9.8137 3.55102 9.77268 3.58111 9.73856 3.6196C9.70442 3.65812 9.67803 3.70415 9.66166 3.75496C9.64529 3.80578 9.63947 3.85981 9.64474 3.91341L9.68871 4.36056L9.24879 4.4519C8.39532 4.6291 7.62595 5.10237 7.07213 5.79417C6.51816 6.48616 6.21441 7.35387 6.21429 8.25048C6.21429 8.2505 6.21429 8.25052 6.21429 8.25054L5.71429 8.25048C5.71429 9.08619 5.38997 12.4405 4.45923 13.8751L10.3112 4.36128ZM10.3112 4.36128L10.752 4.45206C12.4758 4.80707 13.7857 6.36793 13.7857 8.25048C13.7857 8.76952 13.8973 10.116 14.171 11.4457C14.3081 12.1122 14.4897 12.7936 14.727 13.3735C14.7967 13.5439 14.8743 13.7133 14.961 13.8751M10.3112 4.36128L14.961 13.8751M14.961 13.8751H5.03896C5.12574 13.7133 5.2033 13.5439 5.27304 13.3735L14.961 13.8751ZM10.855 16.1376C10.6265 16.3709 10.3187 16.5 10 16.5C9.68131 16.5 9.37354 16.3709 9.14499 16.1376C9.0352 16.0255 8.94807 15.8938 8.88713 15.7501H11.1129C11.0519 15.8938 10.9648 16.0255 10.855 16.1376Z" stroke="white"/>
</svg>
