<svg width="20" height="20" viewBox="0 0 20 20" fill="none" xmlns="http://www.w3.org/2000/svg">
<circle cx="10" cy="10" r="6.5" stroke="white"/>
<path d="M8.97914 11.4075C8.97914 11.1701 9.00139 10.9476 9.0459 10.7399C9.09782 10.5248 9.19054 10.3282 9.32406 10.1502C9.45758 9.97218 9.64673 9.8127 9.89152 9.67177C9.99536 9.60501 10.1289 9.52712 10.2921 9.43811C10.4627 9.3491 10.6259 9.24896 10.7816 9.13769C10.9374 9.01901 11.0672 8.88178 11.1711 8.72601C11.2823 8.56282 11.338 8.37738 11.338 8.16968C11.338 7.96198 11.286 7.78767 11.1822 7.64673C11.0858 7.5058 10.956 7.39824 10.7928 7.32406C10.637 7.24988 10.4664 7.2128 10.2809 7.2128C10.0658 7.2128 9.87297 7.26101 9.70236 7.35744C9.53176 7.44645 9.38711 7.55772 9.26843 7.69124C9.14974 7.82476 9.04961 7.96198 8.96801 8.10292L8 7.43533C8.13352 7.1312 8.31525 6.87158 8.5452 6.65647C8.78257 6.44135 9.05331 6.27816 9.35744 6.1669C9.66898 6.05563 9.99165 6 10.3255 6C10.6073 6 10.8855 6.04451 11.1599 6.13352C11.4344 6.21511 11.6829 6.34492 11.9054 6.52295C12.128 6.70097 12.306 6.92721 12.4395 7.20167C12.573 7.47612 12.6398 7.80621 12.6398 8.19193C12.6398 8.4293 12.6101 8.6407 12.5508 8.82615C12.4988 9.01159 12.421 9.17849 12.3171 9.32684C12.2207 9.46778 12.0983 9.59759 11.9499 9.71627C11.8016 9.83496 11.6421 9.94993 11.4715 10.0612C11.2786 10.1799 11.0821 10.2949 10.8818 10.4061C10.6889 10.5174 10.5257 10.6509 10.3922 10.8067C10.2661 10.955 10.2031 11.1553 10.2031 11.4075H8.97914ZM9.00139 14V12.4645H10.2364V14H9.00139Z" fill="white"/>
</svg>
