<svg width="16" height="16" viewBox="0 0 16 16" fill="none" xmlns="http://www.w3.org/2000/svg">
<circle cx="8.00002" cy="8.00002" r="5.1" stroke="#BEBEBE"/>
<path d="M7.18333 9.126C7.18333 8.9361 7.20114 8.75808 7.23674 8.59192C7.27828 8.41983 7.35246 8.26257 7.45927 8.12015C7.56609 7.97773 7.71741 7.85015 7.91324 7.7374C7.99632 7.68399 8.10313 7.62168 8.23368 7.55047C8.37017 7.47926 8.50072 7.39915 8.62534 7.31014C8.74995 7.21519 8.8538 7.10541 8.93688 6.98079C9.02589 6.85024 9.0704 6.70189 9.0704 6.53573C9.0704 6.36957 9.02886 6.23012 8.94578 6.11737C8.86864 6.00462 8.76479 5.91858 8.63424 5.85924C8.50962 5.7999 8.37313 5.77022 8.22478 5.77022C8.05269 5.77022 7.8984 5.8088 7.76192 5.88594C7.62543 5.95715 7.50971 6.04616 7.41477 6.15298C7.31982 6.25979 7.23971 6.36958 7.17443 6.48232L6.40002 5.94825C6.50684 5.70495 6.65223 5.49725 6.83619 5.32516C7.02608 5.15307 7.24268 5.02252 7.48598 4.93351C7.73521 4.84449 7.99335 4.79999 8.26039 4.79999C8.48588 4.79999 8.70842 4.83559 8.92798 4.9068C9.14754 4.97208 9.34634 5.07593 9.52436 5.21835C9.70239 5.36077 9.84481 5.54176 9.95162 5.76132C10.0584 5.98089 10.1118 6.24496 10.1118 6.55353C10.1118 6.74343 10.0881 6.91255 10.0406 7.06091C9.9991 7.20926 9.93679 7.34278 9.85371 7.46146C9.77657 7.57421 9.67865 7.67806 9.55997 7.77301C9.44129 7.86795 9.3137 7.95993 9.17721 8.04894C9.02293 8.14389 8.86567 8.23587 8.70545 8.32488C8.55116 8.4139 8.42061 8.52071 8.31379 8.64533C8.21291 8.76401 8.16247 8.92423 8.16247 9.126H7.18333ZM7.20114 11.2V9.97161H8.18918V11.2H7.20114Z" fill="#BEBEBE"/>
</svg>
