<svg width="14" height="15" viewBox="0 0 14 15" fill="none" xmlns="http://www.w3.org/2000/svg">
<path fill-rule="evenodd" clip-rule="evenodd" d="M9.93517 11.1423C8.88333 12.0335 7.5222 12.5711 6.03553 12.5711C2.7022 12.5711 0 9.86886 0 6.53553C0 3.2022 2.7022 0.5 6.03553 0.5C9.36886 0.5 12.0711 3.2022 12.0711 6.53553C12.0711 8.02219 11.5336 9.3833 10.6423 10.4351L13.9979 13.7908L13.2908 14.4979L9.93517 11.1423ZM11.0711 6.53553C11.0711 9.31657 8.81657 11.5711 6.03553 11.5711C3.25448 11.5711 1 9.31657 1 6.53553C1 3.75448 3.25448 1.5 6.03553 1.5C8.81657 1.5 11.0711 3.75448 11.0711 6.53553Z" fill="white"/>
</svg>
