<svg width="20" height="20" viewBox="0 0 20 20" fill="none" xmlns="http://www.w3.org/2000/svg">
<path fill-rule="evenodd" clip-rule="evenodd" d="M12.9352 13.6423C11.8833 14.5335 10.5222 15.0711 9.03553 15.0711C5.7022 15.0711 3 12.3689 3 9.03553C3 5.7022 5.7022 3 9.03553 3C12.3689 3 15.0711 5.7022 15.0711 9.03553C15.0711 10.5222 14.5336 11.8833 13.6423 12.9351L16.9979 16.2908L16.2908 16.9979L12.9352 13.6423ZM14.0711 9.03553C14.0711 11.8166 11.8166 14.0711 9.03553 14.0711C6.25448 14.0711 4 11.8166 4 9.03553C4 6.25448 6.25448 4 9.03553 4C11.8166 4 14.0711 6.25448 14.0711 9.03553Z" fill="white"/>
</svg>
