<svg width="20" height="20" viewBox="0 0 20 20" fill="none" xmlns="http://www.w3.org/2000/svg">
<path d="M4.17022 16.5C4.16757 16.4999 4.16138 16.4997 4.15216 16.499C4.13355 16.4977 4.1037 16.4948 4.06657 16.4886C3.98995 16.4758 3.89542 16.4512 3.80694 16.407C3.72042 16.3637 3.64911 16.3067 3.59832 16.2305C3.54961 16.1574 3.5 16.0375 3.5 15.8333C3.5 15.3784 3.74194 14.3402 4.66605 13.4161C5.57552 12.5066 7.18878 11.6667 10 11.6667C12.8112 11.6667 14.4245 12.5066 15.3339 13.4161C16.2581 14.3402 16.5 15.3784 16.5 15.8333C16.5 16.0375 16.4504 16.1574 16.4017 16.2305C16.3509 16.3067 16.2796 16.3637 16.1931 16.407C16.1046 16.4512 16.0101 16.4758 15.9334 16.4886C15.8963 16.4948 15.8664 16.4977 15.8478 16.499C15.8386 16.4997 15.8324 16.4999 15.8298 16.5C15.8297 16.5 15.8296 16.5 15.8295 16.5H4.17046C4.17038 16.5 4.1703 16.5 4.17022 16.5ZM12.1213 8.62132C11.5587 9.18393 10.7957 9.5 10 9.5C9.20435 9.5 8.44129 9.18393 7.87868 8.62132C7.31607 8.05871 7 7.29565 7 6.5C7 5.70435 7.31607 4.94129 7.87868 4.37868C8.44129 3.81607 9.20435 3.5 10 3.5C10.7957 3.5 11.5587 3.81607 12.1213 4.37868L12.4749 4.02513L12.1213 4.37868C12.6839 4.94129 13 5.70435 13 6.5C13 7.29565 12.6839 8.05871 12.1213 8.62132Z" stroke="white"/>
</svg>
