<svg width="20" height="20" viewBox="0 0 20 20" fill="none" xmlns="http://www.w3.org/2000/svg">
<path d="M14.928 12.432C14.928 13.04 14.768 13.5627 14.448 14C14.1387 14.4373 13.7173 14.7733 13.184 15.008C12.6507 15.2427 12.064 15.36 11.424 15.36H6V4H11.856C12.3893 4 12.848 4.144 13.232 4.432C13.6267 4.70933 13.9253 5.072 14.128 5.52C14.3413 5.95733 14.448 6.416 14.448 6.896C14.448 7.45067 14.304 7.97333 14.016 8.464C13.7387 8.944 13.3387 9.30133 12.816 9.536C13.4667 9.728 13.9787 10.08 14.352 10.592C14.736 11.0933 14.928 11.7067 14.928 12.432ZM13.088 12.096C13.088 11.776 13.0187 11.488 12.88 11.232C12.752 10.9653 12.5707 10.752 12.336 10.592C12.112 10.4213 11.8453 10.336 11.536 10.336H7.792V13.808H11.424C11.744 13.808 12.0267 13.7333 12.272 13.584C12.528 13.424 12.7253 13.216 12.864 12.96C13.0133 12.6933 13.088 12.4053 13.088 12.096ZM7.792 5.552V8.896H11.088C11.3867 8.896 11.6533 8.82667 11.888 8.688C12.1227 8.53867 12.3093 8.34133 12.448 8.096C12.5867 7.84 12.656 7.552 12.656 7.232C12.656 6.90133 12.592 6.61333 12.464 6.368C12.336 6.112 12.16 5.91467 11.936 5.776C11.7227 5.62667 11.472 5.552 11.184 5.552H7.792Z" fill="white"/>
</svg>
