<svg width="20" height="20" viewBox="0 0 20 20" fill="none" xmlns="http://www.w3.org/2000/svg">
<path d="M14.1634 17H5.84344C4.85312 17 3.9475 16.5124 3.42628 15.6892C2.90506 14.8661 2.85945 13.8656 3.30249 12.9981L4.42312 10.8135C4.78797 10.1043 5.37435 9.66102 6.03239 9.59136C6.69043 9.52171 7.3615 9.83832 7.86969 10.4525L8.01303 10.6298C8.2997 10.9718 8.63198 11.1554 8.95772 11.1237C9.28348 11.0984 9.58318 10.8705 9.8047 10.4842L11.0361 8.32495C11.5443 7.43211 12.2219 6.96986 12.9581 7.00152C13.6878 7.03952 14.3133 7.57142 14.7302 8.50858L16.7695 13.1374C17.1474 13.9922 17.0562 14.9674 16.5285 15.7462C16.0072 16.5378 15.1212 17 14.1634 17ZM6.21481 10.5412C6.18875 10.5412 6.16269 10.5412 6.13663 10.5475C5.81087 10.5792 5.51117 10.8325 5.29616 11.2441L4.17554 13.4287C3.88235 13.9922 3.91493 14.6571 4.25372 15.1953C4.59251 15.7336 5.19192 16.0565 5.84344 16.0565H14.1569C14.7954 16.0565 15.3622 15.7589 15.714 15.2397C16.0659 14.7204 16.1245 14.0999 15.8704 13.53L13.8311 8.90118C13.5836 8.33128 13.2382 7.98301 12.906 7.97035C12.5997 7.95135 12.2023 8.26796 11.8896 8.80619L10.6582 10.9654C10.2803 11.624 9.68743 12.0356 9.04241 12.0926C8.39743 12.1432 7.73939 11.8393 7.25074 11.2441L7.10741 11.0668C6.83377 10.7185 6.52103 10.5412 6.21481 10.5412Z" fill="white"/>
<path d="M6.5 8C5.12667 8 4 6.88 4 5.5C4 4.12 5.12 3 6.5 3C7.88 3 9 4.12 9 5.5C9 6.88 7.88 8 6.5 8ZM6.5 4C5.67333 4 5 4.67333 5 5.5C5 6.32667 5.67333 7 6.5 7C7.32667 7 8 6.32667 8 5.5C8 4.67333 7.32667 4 6.5 4Z" fill="white"/>
</svg>
