<svg width="20" height="20" viewBox="0 0 20 20" fill="none" xmlns="http://www.w3.org/2000/svg">
<path fill-rule="evenodd" clip-rule="evenodd" d="M11.8409 5.62591C11.8409 5.28023 12.1234 5 12.4719 5H13.7422C16.6404 5 19 7.35064 19 10.2159C19 13.091 16.6305 15.4318 13.7422 15.4318H12.4719C12.1234 15.4318 11.8409 15.1516 11.8409 14.8059C11.8409 14.4602 12.1234 14.18 12.4719 14.18H13.7422C15.935 14.18 17.7381 12.3982 17.7381 10.2159C17.7381 8.04052 15.942 6.25182 13.7422 6.25182H12.4719C12.1234 6.25182 11.8409 5.97159 11.8409 5.62591Z" fill="white"/>
<path fill-rule="evenodd" clip-rule="evenodd" d="M1 10.2159C1 7.34156 3.29564 5 6.11364 5H7.34091C7.67981 5 7.95455 5.28023 7.95455 5.62591C7.95455 5.97159 7.67981 6.25182 7.34091 6.25182H6.11364C3.97345 6.25182 2.22727 8.03292 2.22727 10.2159C2.22727 12.3913 3.97417 14.18 6.11364 14.18H7.34091C7.67981 14.18 7.95455 14.4602 7.95455 14.8059C7.95455 15.1516 7.67981 15.4318 7.34091 15.4318H6.11364C3.29492 15.4318 1 13.0812 1 10.2159Z" fill="white"/>
<path fill-rule="evenodd" clip-rule="evenodd" d="M5.9091 10.3182C5.9091 9.97929 6.19107 9.70456 6.53889 9.70456H13.2566C13.6044 9.70456 13.8864 9.97929 13.8864 10.3182C13.8864 10.6571 13.6044 10.9318 13.2566 10.9318H6.53889C6.19107 10.9318 5.9091 10.6571 5.9091 10.3182Z" fill="white"/>
</svg>
