<svg width="29" height="28" viewBox="0 0 29 28" fill="none" xmlns="http://www.w3.org/2000/svg">
<path d="M22.2623 6.99264C20.8101 6.33671 19.2775 5.86897 17.7029 5.60113C17.6886 5.5985 17.6738 5.60038 17.6607 5.6065C17.6475 5.61262 17.6366 5.62266 17.6296 5.6352C17.4327 5.97987 17.2146 6.42941 17.0619 6.7827C15.3402 6.52905 13.6272 6.52905 11.9409 6.7827C11.7882 6.42151 11.5621 5.97987 11.3644 5.6352C11.357 5.62295 11.3461 5.61315 11.3331 5.60709C11.32 5.60103 11.3054 5.59898 11.2911 5.60122C9.71636 5.86844 8.18365 6.33614 6.73158 6.99255C6.71915 6.99777 6.70869 7.00666 6.70162 7.01799C3.79765 11.2869 3.00208 15.4509 3.39239 19.5633C3.3935 19.5733 3.39664 19.5831 3.40165 19.5919C3.40665 19.6008 3.4134 19.6086 3.42151 19.6148C5.33746 20.9993 7.19339 21.8398 9.01488 22.3969C9.02904 22.4011 9.04416 22.4009 9.05821 22.3963C9.07225 22.3918 9.08455 22.3832 9.09347 22.3716C9.52429 21.7926 9.90836 21.1821 10.2377 20.5402C10.2423 20.5314 10.2448 20.5217 10.2453 20.5119C10.2458 20.502 10.2441 20.4922 10.2405 20.483C10.2368 20.4739 10.2312 20.4656 10.224 20.4587C10.2169 20.4518 10.2083 20.4465 10.1989 20.4431C9.58963 20.2157 9.00956 19.9384 8.45152 19.6236C8.44135 19.6177 8.4328 19.6095 8.42663 19.5996C8.42047 19.5897 8.41688 19.5784 8.41618 19.5668C8.41547 19.5553 8.41769 19.5437 8.42261 19.5331C8.42754 19.5226 8.43503 19.5134 8.44443 19.5063C8.56184 19.4197 8.67935 19.3297 8.79144 19.2387C8.8014 19.2306 8.81346 19.2255 8.82626 19.2238C8.83906 19.2221 8.85208 19.2239 8.86387 19.2291C12.5298 20.876 16.4985 20.876 20.1212 19.2291C20.133 19.2236 20.1461 19.2215 20.1591 19.223C20.1721 19.2245 20.1843 19.2297 20.1944 19.2378C20.3066 19.3287 20.424 19.4197 20.5424 19.5063C20.5518 19.5133 20.5593 19.5224 20.5643 19.5329C20.5693 19.5434 20.5716 19.555 20.571 19.5665C20.5704 19.5781 20.5669 19.5894 20.5608 19.5993C20.5548 19.6092 20.5463 19.6176 20.5362 19.6235C19.978 19.9444 19.3932 20.2182 18.7881 20.4422C18.7787 20.4457 18.7702 20.4511 18.763 20.4581C18.7559 20.4651 18.7504 20.4735 18.7468 20.4828C18.7432 20.492 18.7417 20.5019 18.7422 20.5118C18.7428 20.5217 18.7455 20.5314 18.7501 20.5402C19.0865 21.1812 19.4705 21.7917 19.8934 22.3706C19.9021 22.3826 19.9143 22.3916 19.9284 22.3963C19.9425 22.401 19.9578 22.4012 19.972 22.3969C21.8023 21.8397 23.6582 20.9992 25.5742 19.6148C25.5824 19.6089 25.5893 19.6013 25.5943 19.5926C25.5994 19.5838 25.6024 19.5741 25.6034 19.5641C26.0704 14.8097 24.821 10.6799 22.2914 7.01882C22.2852 7.00692 22.2749 6.9977 22.2623 6.99264ZM10.7851 17.0593C9.68147 17.0593 8.77203 16.0622 8.77203 14.8377C8.77203 13.6134 9.66383 12.6163 10.7852 12.6163C11.9153 12.6163 12.8159 13.6221 12.7982 14.8378C12.7982 16.0622 11.9064 17.0593 10.7851 17.0593ZM18.2283 17.0593C17.1246 17.0593 16.2152 16.0622 16.2152 14.8377C16.2152 13.6134 17.1069 12.6163 18.2283 12.6163C19.3583 12.6163 20.2589 13.6221 20.2413 14.8378C20.2413 16.0622 19.3583 17.0593 18.2283 17.0593Z" fill="#BEBEBE"/>
</svg>
