<svg width="29" height="28" viewBox="0 0 29 28" fill="none" xmlns="http://www.w3.org/2000/svg">
<path d="M14.4545 4.20004C11.8633 4.21213 9.38234 5.24996 7.55436 7.08651C5.72638 8.92305 4.70017 11.4088 4.7002 14C4.7002 16.5991 5.73269 19.0918 7.57055 20.9297C9.4084 22.7675 11.9011 23.8 14.5002 23.8C17.0993 23.8 19.592 22.7675 21.4298 20.9297C23.2677 19.0918 24.3002 16.5991 24.3002 14C24.3002 11.4009 23.2677 8.90824 21.4298 7.07039C19.592 5.23253 17.0993 4.20004 14.5002 4.20004C14.485 4.2 14.4697 4.2 14.4545 4.20004ZM18.5068 10.0996C18.5884 10.098 18.7689 10.1184 18.8865 10.214C18.9647 10.2818 19.0145 10.3765 19.0262 10.4794C19.0392 10.5553 19.0556 10.7293 19.0425 10.8648C18.8955 12.4149 18.2569 16.1748 17.9318 17.9102C17.7946 18.6452 17.5243 18.891 17.2622 18.9147C16.6938 18.9678 16.2617 18.5391 15.7105 18.1781C14.8481 17.6121 14.3605 17.2602 13.5235 16.7081C12.5557 16.0711 13.1829 15.7199 13.7342 15.1483C13.8787 14.998 16.3859 12.717 16.4349 12.5104C16.4406 12.4843 16.4463 12.3879 16.3891 12.3373C16.332 12.2867 16.247 12.3038 16.1858 12.3177C16.0992 12.3373 14.7215 13.2487 12.0526 15.0494C11.6606 15.3189 11.307 15.4496 10.9893 15.4414C10.6398 15.4349 9.96688 15.2446 9.46626 15.0821C8.85213 14.882 8.36458 14.7767 8.40705 14.4378C8.4291 14.2614 8.67246 14.0809 9.13633 13.8963C11.993 12.6517 13.8975 11.831 14.8514 11.4349C17.5725 10.303 18.1384 10.1062 18.5068 10.0996Z" fill="#BEBEBE"/>
</svg>
