<svg width="29" height="28" viewBox="0 0 29 28" fill="none" xmlns="http://www.w3.org/2000/svg">
<path d="M23.8902 9.18652C23.7795 8.76368 23.5611 8.37776 23.257 8.0674C22.9529 7.75704 22.5736 7.53313 22.1573 7.4181C20.6293 7 14.5002 7 14.5002 7C14.5002 7 8.37111 7 6.84231 7.4181C6.42615 7.53333 6.04712 7.75732 5.74314 8.06766C5.43917 8.378 5.22089 8.76382 5.11016 9.18652C4.7002 10.7463 4.7002 14 4.7002 14C4.7002 14 4.7002 17.2537 5.11016 18.8135C5.22089 19.2363 5.43926 19.6222 5.7434 19.9326C6.04754 20.243 6.42677 20.4669 6.84313 20.5819C8.37111 21 14.5002 21 14.5002 21C14.5002 21 20.6293 21 22.1581 20.5819C22.5745 20.467 22.9537 20.2431 23.2579 19.9327C23.562 19.6223 23.7804 19.2364 23.891 18.8135C24.3002 17.2537 24.3002 14 24.3002 14C24.3002 14 24.3002 10.7463 23.8902 9.18652ZM12.4953 16.954V11.046L17.6182 14L12.4953 16.954Z" fill="#BEBEBE"/>
</svg>
